<svg width="24" height="24" viewBox="0 0 24 24" fill="none" xmlns="http://www.w3.org/2000/svg">
<path fill-rule="evenodd" clip-rule="evenodd" d="M11.9999 1C12.6283 1 13.1378 1.50947 13.1378 2.13793V10.8621H21.8621C22.4905 10.8621 23 11.3715 23 12C23 12.6285 22.4905 13.1379 21.8621 13.1379H13.1378V21.8621C13.1378 22.4905 12.6283 23 11.9999 23C11.3714 23 10.8619 22.4905 10.8619 21.8621V13.1379H2.13793C1.50947 13.1379 1 12.6285 1 12C1 11.3715 1.50947 10.8621 2.13793 10.8621H10.8619V2.13793C10.8619 1.50947 11.3714 1 11.9999 1Z" fill="#24292E"/>
</svg>
