<svg width="84" height="82" viewBox="0 0 84 82" fill="none" xmlns="http://www.w3.org/2000/svg">
<g style="mix-blend-mode:color-dodge" filter="url(#filter0_f_61_5746)">
<path d="M16.0037 41.4756C16.0012 41.6233 16 41.7713 16 41.9196C16 42.4932 16.0187 43.0607 16.0555 43.6217C16.0187 44.2236 16 44.8304 16 45.4416C16 53.8517 19.5365 58.5211 25.2076 61.0695C29.7366 64.6499 35.5956 66.7363 41.9945 66.7363C46.8694 66.7363 51.4309 65.5254 55.3297 63.3655C59.8614 62.5164 62.1244 60.6004 63.2063 56.5332C66.2183 52.5068 67.989 47.5033 67.989 41.9196C67.989 34.7811 65.0949 28.3165 60.4127 23.629C57.7208 18.8884 53.1602 16 45.5266 16C44.9146 16 44.307 16.0186 43.7042 16.0552C43.139 16.0186 42.5689 16 41.9945 16C41.8458 16 41.6973 16.0012 41.5492 16.0037C41.4057 16.0012 41.2608 16 41.1146 16C40.0907 16 39.0811 16.0611 38.0893 16.1798C36.0832 16.0473 33.9801 16 31.8129 16C17.9425 16 16 17.9369 16 31.7673C16 33.9283 16.0474 36.0253 16.1804 38.0256C16.0613 39.0146 16 40.0213 16 41.0423C16 41.188 16.0012 41.3325 16.0037 41.4756Z" fill="#29CCFF"/>
</g>
<defs>
<filter id="filter0_f_61_5746" x="0.967033" y="0.967033" width="82.0549" height="80.8023" filterUnits="userSpaceOnUse" color-interpolation-filters="sRGB">
<feFlood flood-opacity="0" result="BackgroundImageFix"/>
<feBlend mode="normal" in="SourceGraphic" in2="BackgroundImageFix" result="shape"/>
<feGaussianBlur stdDeviation="7.51648" result="effect1_foregroundBlur_61_5746"/>
</filter>
</defs>
</svg>
