<svg width="24" height="24" viewBox="0 0 24 24" fill="none" xmlns="http://www.w3.org/2000/svg">
<path fill-rule="evenodd" clip-rule="evenodd" d="M10.157 1.15401C11.377 0.948013 12.623 0.948013 13.843 1.15401C14.0383 1.18805 14.2122 1.29803 14.3266 1.45991C14.4411 1.62179 14.4868 1.82239 14.4537 2.01787C14.4207 2.21334 14.3116 2.38778 14.1503 2.50305C13.989 2.61832 13.7886 2.66505 13.593 2.63301C12.5385 2.45495 11.4615 2.45495 10.407 2.63301C10.2107 2.66616 10.0093 2.61999 9.84713 2.50465C9.68491 2.38932 9.57515 2.21427 9.542 2.01801C9.50885 1.82175 9.55502 1.62035 9.67035 1.45814C9.78569 1.29592 9.96074 1.18616 10.157 1.15301V1.15401ZM6.68 3.20501C6.73708 3.2853 6.77778 3.37606 6.79977 3.47209C6.82177 3.56812 6.82463 3.66754 6.80819 3.76467C6.79176 3.86181 6.75634 3.95476 6.70398 4.0382C6.65161 4.12165 6.58332 4.19396 6.503 4.25101C5.63131 4.87036 4.86974 5.6316 4.25 6.50301C4.13463 6.66519 3.95956 6.77489 3.7633 6.80799C3.56705 6.84109 3.36568 6.79488 3.2035 6.67951C3.04132 6.56414 2.93161 6.38907 2.89851 6.19281C2.86541 5.99655 2.91163 5.79519 3.027 5.63301C3.74386 4.62504 4.62476 3.74448 5.633 3.02801C5.7133 2.97093 5.80405 2.93023 5.90008 2.90823C5.99611 2.88624 6.09553 2.88338 6.19267 2.89981C6.2898 2.91625 6.38275 2.95166 6.4662 3.00403C6.54964 3.05639 6.62195 3.12469 6.679 3.20501H6.68ZM17.32 3.20501C17.377 3.12469 17.4494 3.05639 17.5328 3.00403C17.6163 2.95166 17.7092 2.91625 17.8063 2.89981C17.9035 2.88338 18.0029 2.88624 18.0989 2.90823C18.1949 2.93023 18.2857 2.97093 18.366 3.02801C19.374 3.74487 20.2545 4.62576 20.971 5.63401C21.0312 5.71407 21.0747 5.80537 21.099 5.90253C21.1233 5.99969 21.1279 6.10073 21.1125 6.19969C21.0972 6.29865 21.0621 6.39354 21.0095 6.47874C20.9569 6.56395 20.8877 6.63775 20.8061 6.69579C20.7245 6.75383 20.632 6.79493 20.5343 6.81668C20.4365 6.83843 20.3354 6.84037 20.2369 6.82241C20.1383 6.80444 20.0444 6.76692 19.9606 6.71206C19.8768 6.6572 19.8049 6.58612 19.749 6.50301C19.1296 5.63168 18.3683 4.87045 17.497 4.25101C17.4167 4.19396 17.3484 4.12165 17.296 4.0382C17.2437 3.95476 17.2082 3.86181 17.1918 3.76467C17.1754 3.66754 17.1782 3.56812 17.2002 3.47209C17.2222 3.37606 17.2629 3.2853 17.32 3.20501ZM2.018 9.54301C2.21412 9.57605 2.38908 9.68563 2.50441 9.84766C2.61974 10.0097 2.66599 10.2109 2.633 10.407C2.45494 11.4615 2.45494 12.5385 2.633 13.593C2.66615 13.7893 2.61998 13.9907 2.50465 14.1529C2.38931 14.3151 2.21426 14.4249 2.018 14.458C1.82174 14.4912 1.62035 14.445 1.45813 14.3297C1.29591 14.2143 1.18615 14.0393 1.153 13.843C0.947006 12.623 0.947006 11.377 1.153 10.157C1.16947 10.0599 1.20491 9.96697 1.2573 9.88355C1.30969 9.80013 1.37799 9.72785 1.45832 9.67083C1.53864 9.61382 1.62941 9.57318 1.72544 9.55125C1.82147 9.52932 1.92089 9.52652 2.018 9.54301ZM21.982 9.54301C22.178 9.50999 22.379 9.55611 22.541 9.67124C22.703 9.78636 22.8127 9.96107 22.846 10.157C23.0521 11.377 23.0521 12.623 22.846 13.843C22.812 14.0383 22.702 14.2122 22.5401 14.3266C22.3782 14.4411 22.1776 14.4868 21.9821 14.4537C21.7867 14.4207 21.6122 14.3116 21.497 14.1503C21.3817 13.989 21.335 13.7886 21.367 13.593C21.5452 12.5385 21.5452 11.4615 21.367 10.407C21.334 10.2109 21.3803 10.0097 21.4956 9.84766C21.6109 9.68563 21.7859 9.57605 21.982 9.54301ZM3.205 17.32C3.2853 17.2629 3.37605 17.2222 3.47208 17.2002C3.56811 17.1782 3.66753 17.1754 3.76467 17.1918C3.8618 17.2082 3.95475 17.2437 4.0382 17.296C4.12164 17.3484 4.19395 17.4167 4.251 17.497C4.87044 18.3683 5.63167 19.1296 6.503 19.749C6.5833 19.8061 6.65157 19.8785 6.7039 19.962C6.75623 20.0455 6.7916 20.1385 6.80799 20.2357C6.82438 20.3329 6.82147 20.4323 6.79942 20.5284C6.77737 20.6244 6.73662 20.7152 6.6795 20.7955C6.62237 20.8758 6.54999 20.9441 6.46648 20.9964C6.38298 21.0487 6.28998 21.0841 6.1928 21.1005C6.09563 21.1169 5.99617 21.114 5.90012 21.0919C5.80407 21.0699 5.7133 21.0291 5.633 20.972C4.62503 20.2551 3.74448 19.3742 3.028 18.366C2.97092 18.2857 2.93022 18.195 2.90823 18.0989C2.88623 18.0029 2.88337 17.9035 2.89981 17.8063C2.91624 17.7092 2.95166 17.6163 3.00402 17.5328C3.05639 17.4494 3.12468 17.3771 3.205 17.32ZM20.795 17.32C20.8752 17.3771 20.9434 17.4495 20.9957 17.533C21.048 17.6165 21.0833 17.7094 21.0996 17.8066C21.116 17.9037 21.113 18.0031 21.091 18.0991C21.0689 18.1951 21.0281 18.2858 20.971 18.366C20.2545 19.3739 19.3739 20.2545 18.366 20.971C18.2859 21.0312 18.1946 21.0747 18.0975 21.099C18.0003 21.1233 17.8993 21.1279 17.8003 21.1125C17.7014 21.0972 17.6065 21.0621 17.5213 21.0095C17.4361 20.9569 17.3623 20.8877 17.3042 20.8061C17.2462 20.7245 17.2051 20.632 17.1833 20.5343C17.1616 20.4365 17.1596 20.3354 17.1776 20.2369C17.1956 20.1383 17.2331 20.0444 17.2879 19.9606C17.3428 19.8768 17.4139 19.8049 17.497 19.749C18.3683 19.1296 19.1296 18.3683 19.749 17.497C19.806 17.4167 19.8784 17.3484 19.9618 17.296C20.0453 17.2437 20.1382 17.2082 20.2353 17.1918C20.3325 17.1754 20.4319 17.1782 20.5279 17.2002C20.6239 17.2222 20.7147 17.2629 20.795 17.32ZM9.543 21.982C9.57604 21.7859 9.68563 21.6109 9.84765 21.4956C10.0097 21.3803 10.2109 21.334 10.407 21.367C11.4615 21.5452 12.5385 21.5452 13.593 21.367C13.7893 21.3339 13.9907 21.38 14.1529 21.4954C14.3151 21.6107 14.4248 21.7857 14.458 21.982C14.4912 22.1783 14.445 22.3797 14.3296 22.5419C14.2143 22.7041 14.0393 22.8139 13.843 22.847C12.623 23.0531 11.377 23.0531 10.157 22.847C10.0599 22.8305 9.96696 22.7951 9.88354 22.7427C9.80013 22.6903 9.72784 22.622 9.67083 22.5417C9.61381 22.4614 9.57318 22.3706 9.55124 22.2746C9.52931 22.1785 9.52651 22.0791 9.543 21.982Z" fill="#24292E"/>
</svg>
