<svg width="24" height="24" viewBox="0 0 24 24" fill="none" xmlns="http://www.w3.org/2000/svg">
<path fill-rule="evenodd" clip-rule="evenodd" d="M16.168 2.924L4.51 13.061C4.47144 13.0944 4.44401 13.1388 4.4314 13.1882C4.41879 13.2376 4.4216 13.2897 4.43945 13.3375C4.4573 13.3853 4.48934 13.4264 4.53126 13.4555C4.57319 13.4845 4.62299 13.5001 4.674 13.5H10.124C10.2478 13.4999 10.3696 13.5304 10.4788 13.5888C10.5879 13.6472 10.6808 13.7317 10.7493 13.8348C10.8179 13.9379 10.8598 14.0563 10.8714 14.1795C10.8831 14.3027 10.864 14.4269 10.816 14.541L8.257 20.607L19.472 10.939C19.5106 10.9056 19.538 10.8612 19.5506 10.8118C19.5632 10.7624 19.5604 10.7103 19.5425 10.6625C19.5247 10.6147 19.4927 10.5736 19.4507 10.5445C19.4088 10.5155 19.359 10.4999 19.308 10.5H14C13.8755 10.4999 13.753 10.4689 13.6435 10.4096C13.534 10.3504 13.4409 10.2648 13.3728 10.1606C13.3046 10.0564 13.2635 9.93694 13.253 9.81288C13.2426 9.68882 13.2632 9.56411 13.313 9.45L16.168 2.924ZM15.716 1.329C15.9458 1.12873 16.2369 1.0127 16.5414 1.00003C16.8459 0.987363 17.1457 1.07881 17.3913 1.25931C17.6369 1.43981 17.8137 1.69859 17.8925 1.99301C17.9713 2.28743 17.9475 2.59993 17.825 2.879L15.147 9H19.308C20.931 9 21.68 11.016 20.451 12.075L8.102 22.721C7.90577 22.8909 7.65781 22.9893 7.39849 23.0003C7.13917 23.0113 6.88377 22.9341 6.6739 22.7814C6.46402 22.6287 6.31204 22.4094 6.24269 22.1593C6.17334 21.9092 6.19072 21.643 6.292 21.404L8.996 15H4.674C3.055 15 2.304 12.992 3.526 11.93L15.716 1.33V1.329Z" fill="#24292E"/>
</svg>
