<svg width="24" height="24" viewBox="0 0 24 24" fill="none" xmlns="http://www.w3.org/2000/svg">
<path d="M13 11.7312C13.5978 11.3853 14 10.739 14 9.99872C14 8.89415 13.1046 7.99872 12 7.99872C10.8954 7.99872 10 8.89415 10 9.99872C10 10.739 10.4022 11.3853 11 11.7312V14.4987C11 15.051 11.4477 15.4987 12 15.4987C12.5523 15.4987 13 15.051 13 14.4987L13 11.7312Z" fill="#24292E"/>
<path fill-rule="evenodd" clip-rule="evenodd" d="M11.4601 0.635348C11.811 0.521534 12.189 0.521535 12.5399 0.635348L20.7899 3.31102C21.5108 3.54482 22 4.21579 22 4.97493V9.99871C22 16.188 18.2292 20.7036 12.599 22.828C12.2134 22.9736 11.7866 22.9736 11.401 22.828C5.7708 20.7036 2.00001 16.188 2 9.99871V4.97465C2 4.21526 2.48947 3.54475 3.21012 3.31102L11.4601 0.635348ZM12.0771 2.06218C12.027 2.04592 11.973 2.04592 11.9229 2.06218L3.67287 4.73786C3.56895 4.77156 3.5 4.86719 3.5 4.97465L3.5 9.99871C3.5 15.4601 6.78075 19.4815 11.9305 21.4246C11.9749 21.4414 12.0251 21.4414 12.0695 21.4246C17.2193 19.4815 20.5 15.4601 20.5 9.99871V4.97493C20.5 4.86722 20.4308 4.77148 20.3271 4.73786L12.0771 2.06218Z" fill="#24292E"/>
</svg>
