<svg width="24" height="24" viewBox="0 0 24 24" fill="none" xmlns="http://www.w3.org/2000/svg">
<path fill-rule="evenodd" clip-rule="evenodd" d="M12.53 1.22001C12.3894 1.07956 12.1988 1.00067 12 1.00067C11.8012 1.00067 11.6106 1.07956 11.47 1.22001L8.22 4.47001C8.08752 4.61219 8.0154 4.80023 8.01882 4.99453C8.02225 5.18884 8.10097 5.37422 8.23838 5.51163C8.37579 5.64905 8.56118 5.72776 8.75548 5.73119C8.94978 5.73461 9.13783 5.66249 9.28 5.53001L11.25 3.56001V14.25C11.25 14.4489 11.329 14.6397 11.4697 14.7803C11.6103 14.921 11.8011 15 12 15C12.1989 15 12.3897 14.921 12.5303 14.7803C12.671 14.6397 12.75 14.4489 12.75 14.25V3.56001L14.72 5.53001C14.7887 5.6037 14.8715 5.6628 14.9635 5.70379C15.0555 5.74478 15.1548 5.76683 15.2555 5.7686C15.3562 5.77038 15.4562 5.75186 15.5496 5.71413C15.643 5.67641 15.7278 5.62027 15.799 5.54905C15.8703 5.47783 15.9264 5.393 15.9641 5.29961C16.0018 5.20622 16.0204 5.10619 16.0186 5.00549C16.0168 4.90479 15.9948 4.80547 15.9538 4.71347C15.9128 4.62147 15.8537 4.53867 15.78 4.47001L12.53 1.22001ZM5.5 9.75001C5.5 9.68371 5.52634 9.62012 5.57322 9.57323C5.62011 9.52635 5.6837 9.50001 5.75 9.50001H8.25C8.44891 9.50001 8.63968 9.42099 8.78033 9.28034C8.92098 9.13969 9 8.94892 9 8.75001C9 8.5511 8.92098 8.36033 8.78033 8.21968C8.63968 8.07903 8.44891 8.00001 8.25 8.00001H5.75C5.28587 8.00001 4.84075 8.18439 4.51256 8.51257C4.18437 8.84076 4 9.28588 4 9.75001V20.25C4 21.216 4.784 22 5.75 22H18.25C18.7141 22 19.1592 21.8156 19.4874 21.4874C19.8156 21.1593 20 20.7141 20 20.25V9.75001C20 9.28588 19.8156 8.84076 19.4874 8.51257C19.1592 8.18439 18.7141 8.00001 18.25 8.00001H15.75C15.5511 8.00001 15.3603 8.07903 15.2197 8.21968C15.079 8.36033 15 8.5511 15 8.75001C15 8.94892 15.079 9.13969 15.2197 9.28034C15.3603 9.42099 15.5511 9.50001 15.75 9.50001H18.25C18.3163 9.50001 18.3799 9.52635 18.4268 9.57323C18.4737 9.62012 18.5 9.68371 18.5 9.75001V20.25C18.5 20.3163 18.4737 20.3799 18.4268 20.4268C18.3799 20.4737 18.3163 20.5 18.25 20.5H5.75C5.6837 20.5 5.62011 20.4737 5.57322 20.4268C5.52634 20.3799 5.5 20.3163 5.5 20.25V9.75001Z" fill="#24292E"/>
</svg>
