<svg width="24" height="24" viewBox="0 0 24 24" fill="none" xmlns="http://www.w3.org/2000/svg">
<path fill-rule="evenodd" clip-rule="evenodd" d="M5 7.91303C6.43335 7.57445 7.5 6.28679 7.5 4.75C7.5 2.95507 6.04493 1.5 4.25 1.5C2.45507 1.5 1 2.95507 1 4.75C1 6.28679 2.06665 7.57445 3.5 7.91303V16.25C3.5 18.3211 5.17893 20 7.25 20H11.3143L10.0947 21.2197C9.80178 21.5126 9.80178 21.9874 10.0947 22.2803C10.3876 22.5732 10.8624 22.5732 11.1553 22.2803L13.6553 19.7803C13.9482 19.4874 13.9482 19.0126 13.6553 18.7197L11.1553 16.2197C10.8624 15.9268 10.3876 15.9268 10.0947 16.2197C9.80178 16.5126 9.80178 16.9874 10.0947 17.2803L11.3143 18.5H7.25C6.00736 18.5 5 17.4926 5 16.25V7.91303ZM4.25 6.5C5.2165 6.5 6 5.7165 6 4.75C6 3.7835 5.2165 3 4.25 3C3.2835 3 2.5 3.7835 2.5 4.75C2.5 5.7165 3.2835 6.5 4.25 6.5Z" fill="#24292E"/>
<path fill-rule="evenodd" clip-rule="evenodd" d="M13.9053 2.78033C14.1982 2.48744 14.1982 2.01256 13.9053 1.71967C13.6124 1.42678 13.1376 1.42678 12.8447 1.71967L10.3447 4.21967C10.0518 4.51256 10.0518 4.98744 10.3447 5.28033L12.8447 7.78033C13.1376 8.07322 13.6124 8.07322 13.9053 7.78033C14.1982 7.48744 14.1982 7.01256 13.9053 6.71967L12.6857 5.5H16.75C17.9926 5.5 19 6.50736 19 7.75V16.087C17.5667 16.4255 16.5 17.7132 16.5 19.25C16.5 21.0449 17.9551 22.5 19.75 22.5C21.5449 22.5 23 21.0449 23 19.25C23 17.7132 21.9333 16.4255 20.5 16.087V7.75C20.5 5.67893 18.8211 4 16.75 4H12.6857L13.9053 2.78033ZM18 19.25C18 18.2835 18.7835 17.5 19.75 17.5C20.7165 17.5 21.5 18.2835 21.5 19.25C21.5 20.2165 20.7165 21 19.75 21C18.7835 21 18 20.2165 18 19.25Z" fill="#24292E"/>
</svg>
