<svg width="24" height="24" viewBox="0 0 24 24" fill="none" xmlns="http://www.w3.org/2000/svg">
<path fill-rule="evenodd" clip-rule="evenodd" d="M1.52677 13.2374C0.843356 12.554 0.843357 11.446 1.52677 10.7626L10.7989 1.49049C11.4823 0.807067 12.5903 0.807069 13.2737 1.49049L22.5458 10.7626C23.2292 11.446 23.2292 12.554 22.5458 13.2374L13.2737 22.5095C12.5903 23.1929 11.4823 23.1929 10.7989 22.5095L1.52677 13.2374ZM2.58743 11.8232C2.4898 11.9209 2.4898 12.0791 2.58743 12.1768L11.8595 21.4489C11.9571 21.5465 12.1154 21.5465 12.2131 21.4489L21.4851 12.1768C21.5828 12.0791 21.5828 11.9209 21.4851 11.8232L12.2131 2.55115C12.1154 2.45351 11.9571 2.45351 11.8595 2.55115L2.58743 11.8232Z" fill="#24292E"/>
</svg>
