<svg width="24" height="24" viewBox="0 0 24 24" fill="none" xmlns="http://www.w3.org/2000/svg">
<path fill-rule="evenodd" clip-rule="evenodd" d="M5.87299 3.26C5.94331 3.17852 6.03035 3.11312 6.12818 3.06826C6.22602 3.02339 6.33236 3.00012 6.43999 3H17.75C17.8599 3.00004 17.9685 3.02425 18.068 3.07091C18.1676 3.11756 18.2556 3.18553 18.326 3.27L23.326 9.27C23.443 9.41038 23.5047 9.58864 23.4995 9.77129C23.4944 9.95395 23.4227 10.1284 23.298 10.262L12.548 21.762C12.4778 21.8371 12.393 21.897 12.2987 21.9379C12.2044 21.9788 12.1028 21.9999 12 21.9999C11.8972 21.9999 11.7955 21.9788 11.7013 21.9379C11.607 21.897 11.5222 21.8371 11.452 21.762L0.701995 10.262C0.575397 10.1268 0.503308 9.94952 0.499615 9.76434C0.495922 9.57915 0.560887 9.39915 0.681995 9.259L5.87199 3.259L5.87299 3.26ZM6.78299 4.5L2.25799 9.73L12 20.153L21.75 9.723L17.399 4.5H6.78299Z" fill="#24292E"/>
</svg>
