<svg width="20" height="58" viewBox="0 0 20 58" fill="none" xmlns="http://www.w3.org/2000/svg">
<path d="M20 0L20 0.637363L1.89975e-06 0.637362L1.90735e-06 -2.38498e-07L20 0Z" fill="#5A5A5A"/>
<path d="M20 1.27473L20 1.91209L1.88455e-06 1.91209L1.89215e-06 1.27473L20 1.27473Z" fill="#5A5A5A"/>
<path d="M20 2.54945L20 3.18681L1.86935e-06 3.18681L1.87695e-06 2.54945L20 2.54945Z" fill="#5A5A5A"/>
<path d="M20 5.0989L20 5.73626L1.83894e-06 5.73626L1.84654e-06 5.0989L20 5.0989Z" fill="#5A5A5A"/>
<path d="M20 6.37363L20 7.64835L1.81614e-06 7.64835L1.83134e-06 6.37363L20 6.37363Z" fill="#5A5A5A"/>
<path d="M20 8.92308L20 10.1978L1.78574e-06 10.1978L1.80094e-06 8.92308L20 8.92308Z" fill="#5A5A5A"/>
<path d="M20 10.8352L20 11.4725L1.77054e-06 11.4725L1.77814e-06 10.8352L20 10.8352Z" fill="#5A5A5A"/>
<path d="M20 13.3846L20 14.6593L1.73254e-06 14.6593L1.74774e-06 13.3846L20 13.3846Z" fill="#5A5A5A"/>
<path d="M20 15.2967L20 15.9341L1.71734e-06 15.9341L1.72494e-06 15.2967L20 15.2967Z" fill="#5A5A5A"/>
<path d="M20 16.5714L20 17.2088L1.70214e-06 17.2088L1.70974e-06 16.5714L20 16.5714Z" fill="#5A5A5A"/>
<path d="M20 17.8462L20 19.1209L1.67933e-06 19.1209L1.69454e-06 17.8462L20 17.8462Z" fill="#5A5A5A"/>
<path d="M20 20.3956L20 21.6703L1.64893e-06 21.6703L1.66413e-06 20.3956L20 20.3956Z" fill="#5A5A5A"/>
<path d="M20 22.3077L20 22.9451L1.63373e-06 22.9451L1.64133e-06 22.3077L20 22.3077Z" fill="#5A5A5A"/>
<path d="M20 24.8571L20 26.1319L1.59573e-06 26.1319L1.61093e-06 24.8571L20 24.8571Z" fill="#5A5A5A"/>
<path d="M20 26.7692L20 27.4066L1.58053e-06 27.4066L1.58813e-06 26.7692L20 26.7692Z" fill="#5A5A5A"/>
<path d="M20 28.044L20 28.6813L1.56533e-06 28.6813L1.57293e-06 28.044L20 28.044Z" fill="#5A5A5A"/>
<path d="M20 30.5934L20 31.2308L1.53493e-06 31.2308L1.54253e-06 30.5934L20 30.5934Z" fill="#5A5A5A"/>
<path d="M20 31.8681L20 33.1429L1.51212e-06 33.1429L1.52732e-06 31.8681L20 31.8681Z" fill="#5A5A5A"/>
<path d="M20 33.7802L20 34.4176L1.49692e-06 34.4176L1.50452e-06 33.7802L20 33.7802Z" fill="#5A5A5A"/>
<path d="M20 36.3297L20 36.967L1.46652e-06 36.967L1.47412e-06 36.3297L20 36.3297Z" fill="#5A5A5A"/>
<path d="M20 37.6044L20 38.2418L1.45132e-06 38.2418L1.45892e-06 37.6044L20 37.6044Z" fill="#5A5A5A"/>
<path d="M20 39.5165L20 40.1538L1.42852e-06 40.1538L1.43612e-06 39.5165L20 39.5165Z" fill="#5A5A5A"/>
<path d="M20 42.0659L20 42.7033L1.39812e-06 42.7033L1.40572e-06 42.0659L20 42.0659Z" fill="#5A5A5A"/>
<path d="M20 43.3407L20 43.978L1.38292e-06 43.978L1.39052e-06 43.3407L20 43.3407Z" fill="#5A5A5A"/>
<path d="M20 45.8901L20 46.5275L1.35251e-06 46.5275L1.36011e-06 45.8901L20 45.8901Z" fill="#5A5A5A"/>
<path d="M20 48.4396L20 49.0769L1.32211e-06 49.0769L1.32971e-06 48.4396L20 48.4396Z" fill="#5A5A5A"/>
<path d="M20 49.7143L20 50.3517L1.30691e-06 50.3516L1.31451e-06 49.7143L20 49.7143Z" fill="#5A5A5A"/>
<path d="M20 50.989L20 51.6264L1.29171e-06 51.6264L1.29931e-06 50.989L20 50.989Z" fill="#5A5A5A"/>
<path d="M20 53.5385L20 54.8132L1.25371e-06 54.8132L1.26891e-06 53.5385L20 53.5385Z" fill="#5A5A5A"/>
<path d="M20 55.4506L20 56.0879L1.23851e-06 56.0879L1.24611e-06 55.4505L20 55.4506Z" fill="#5A5A5A"/>
<path d="M20 56.7253L20 58L1.21571e-06 58L1.23091e-06 56.7253L20 56.7253Z" fill="#5A5A5A"/>
</svg>
