<svg width="24" height="24" viewBox="0 0 24 24" fill="none" xmlns="http://www.w3.org/2000/svg">
<path fill-rule="evenodd" clip-rule="evenodd" d="M12 2.5C8.19 2.5 5.5 5.243 5.5 8.619C5.5 10.155 6.132 11.191 6.925 12.179C7.097 12.394 7.272 12.601 7.452 12.814L7.548 12.926C7.758 13.176 7.975 13.434 8.178 13.7C8.582 14.231 8.961 14.828 9.173 15.534C9.22492 15.7228 9.20094 15.9244 9.10619 16.0958C9.01144 16.2672 8.85342 16.3947 8.66591 16.4511C8.47839 16.5075 8.27626 16.4883 8.10268 16.3977C7.92911 16.307 7.79787 16.1521 7.737 15.966C7.599 15.506 7.34 15.076 6.984 14.609C6.796 14.3662 6.60194 14.1281 6.402 13.895L6.31 13.785C6.13 13.573 5.94 13.349 5.755 13.118C4.87 12.016 4 10.651 4 8.618C4 4.363 7.415 1 12 1C16.585 1 20 4.362 20 8.619C20 10.651 19.13 12.016 18.245 13.119C18.06 13.349 17.87 13.573 17.69 13.786L17.598 13.895C17.388 14.143 17.193 14.376 17.016 14.609C16.66 15.076 16.401 15.507 16.263 15.966C16.2057 16.1566 16.0751 16.3166 15.8998 16.4108C15.7246 16.505 15.5191 16.5258 15.3285 16.4685C15.1379 16.4112 14.9779 16.2806 14.8837 16.1053C14.7895 15.9301 14.7687 15.7246 14.826 15.534C15.039 14.828 15.418 14.231 15.823 13.7C16.025 13.434 16.242 13.176 16.453 12.926L16.548 12.814C16.728 12.601 16.903 12.394 17.075 12.18C17.868 11.19 18.5 10.155 18.5 8.619C18.5 5.243 15.81 2.5 12 2.5ZM9.5 21.75C9.5 21.5511 9.57902 21.3603 9.71967 21.2197C9.86032 21.079 10.0511 21 10.25 21H13.75C13.9489 21 14.1397 21.079 14.2803 21.2197C14.421 21.3603 14.5 21.5511 14.5 21.75C14.5 21.9489 14.421 22.1397 14.2803 22.2803C14.1397 22.421 13.9489 22.5 13.75 22.5H10.25C10.0511 22.5 9.86032 22.421 9.71967 22.2803C9.57902 22.1397 9.5 21.9489 9.5 21.75ZM8.75 18C8.55109 18 8.36032 18.079 8.21967 18.2197C8.07902 18.3603 8 18.5511 8 18.75C8 18.9489 8.07902 19.1397 8.21967 19.2803C8.36032 19.421 8.55109 19.5 8.75 19.5H15.25C15.4489 19.5 15.6397 19.421 15.7803 19.2803C15.921 19.1397 16 18.9489 16 18.75C16 18.5511 15.921 18.3603 15.7803 18.2197C15.6397 18.079 15.4489 18 15.25 18H8.75Z" fill="#24292E"/>
</svg>
